
        <svg xmlns="http://www.w3.org/2000/svg" xmlns:xlink="http://www.w3.org/1999/xlink" version="1.1" width="3240" height="1951.5166518868434" viewBox="0 0 3240 1951.5166518868434">
			
			<g transform="scale(12.000000000000002) translate(10, 10)">
				<defs id="SvgjsDefs2198"/><g id="SvgjsG2199" featureKey="symbolFeature-0" transform="matrix(1.160424091597971,0,0,1.160424091597971,67.53583080602748,-18.33469976191462)" fill="#000"><metadata xmlns="http://www.w3.org/2000/svg"><sfw xmlns="http://ns.adobe.com/SaveForWeb/1.0/"><slices><slicesourcebounds width="1449.1" height="1429.6" y="-1445.1" x="0.4" bottomleftorigin="true"/></slices></sfw></metadata><path xmlns="http://www.w3.org/2000/svg" d="M84.4,69.9c0,1.4-1.1,2.5-2.5,2.5h-21c-0.8,1.7-2.5,2.9-4.6,2.9H43.7c-2,0-3.8-1.2-4.6-2.9h-21c-1.4,0-2.5-1.1-2.5-2.5  s1.1-2.5,2.5-2.5h23c1.4,0,2.5,1.1,2.5,2.5v0.4l12.7,0l0-0.4c0-1.4,1.1-2.5,2.5-2.5h23.1C83.2,67.4,84.4,68.6,84.4,69.9z M90,84.2  H10c-5.3,0-9.6-4.3-9.6-9.6v-4.7c0-1.4,1.1-2.5,2.5-2.5h4.7V22.3c0-3.6,2.9-6.5,6.5-6.5h71.5c3.5,0,6.4,2.7,6.7,6.3  c0,0.1,0,0.2,0,0.2v45.1h4.7c1.4,0,2.5,1.1,2.5,2.5v4.7C99.6,79.9,95.3,84.2,90,84.2z M10,79.2h80c2.5,0,4.6-2.1,4.6-4.6v-2.2h-4.7  c-1.4,0-2.5-1.1-2.5-2.5V22.5c-0.1-0.9-0.9-1.7-1.7-1.7H14.1c-0.8,0-1.5,0.7-1.5,1.5v47.6c0,1.4-1.1,2.5-2.5,2.5H5.4v2.2  C5.4,77.2,7.5,79.2,10,79.2z M60.7,57.4c0.5,0.6,1.2,0.9,1.9,0.9c0.6,0,1.1-0.2,1.6-0.6l12.4-10.5c0.6-0.5,0.9-1.2,0.9-1.9  s-0.3-1.4-0.9-1.9L64.2,32.8c-1.1-0.9-2.6-0.8-3.5,0.3c-0.9,1.1-0.8,2.6,0.3,3.5l10.2,8.6l-10.2,8.6C59.9,54.7,59.8,56.3,60.7,57.4z   M35.8,57.7c0.5,0.4,1,0.6,1.6,0.6c0.7,0,1.4-0.3,1.9-0.9c0.9-1.1,0.8-2.6-0.3-3.5l-10.1-8.6L39,36.6c1.1-0.9,1.2-2.5,0.3-3.5  c-0.9-1.1-2.5-1.2-3.5-0.3L23.4,43.3c-0.6,0.5-0.9,1.2-0.9,1.9s0.3,1.4,0.9,1.9L35.8,57.7z M43.8,60.7c0.3,0.1,0.6,0.2,0.9,0.2  c1,0,1.9-0.6,2.3-1.6L57.5,33c0.5-1.3-0.1-2.7-1.4-3.2c-1.3-0.5-2.7,0.1-3.2,1.4L42.4,57.5C41.9,58.7,42.5,60.2,43.8,60.7z"/></g><g id="SvgjsG2200" featureKey="nameFeature-0" transform="matrix(0.7358309428408822,0,0,0.7358309428408822,-1.0007305313791655,91.17076132251779)" fill="#000"><path d="M16.28 40.44 c-2 0 -3.96 -0.4 -5.8 -1.16 c-1.76 -0.76 -3.36 -1.84 -4.72 -3.2 c-1.4 -1.36 -2.48 -2.96 -3.2 -4.76 c-0.8 -1.84 -1.2 -3.76 -1.2 -5.8 c0 -8.2 6.72 -14.88 14.92 -14.88 c2.32 0 4.64 0.56 6.68 1.6 c2.04 1 3.88 2.56 5.24 4.4 l0.64 0.8 l-4.28 3.16 l-0.6 -0.8 c-1.8 -2.44 -4.6 -3.84 -7.68 -3.84 c-5.28 0 -9.6 4.28 -9.6 9.56 c0 5.32 4.32 9.64 9.6 9.64 c3.04 0 5.84 -1.4 7.68 -3.84 l0.6 -0.76 l4.24 3.12 l-0.64 0.8 c-1.4 1.88 -3.16 3.36 -5.24 4.4 c-2.04 1.04 -4.32 1.56 -6.64 1.56 z M47.416 40.4 c-8.2 0 -14.88 -6.64 -14.88 -14.84 c0 -8.24 6.68 -14.92 14.88 -14.92 c8.24 0 14.92 6.68 14.92 14.92 c0 8.2 -6.68 14.84 -14.92 14.84 z M47.416 15.96 c-5.24 0 -9.52 4.28 -9.52 9.6 c0 5.28 4.28 9.56 9.52 9.56 s9.52 -4.28 9.52 -9.56 c0 -5.32 -4.28 -9.6 -9.52 -9.6 z M91.072 40 l-6.32 0 l-10.12 -13.92 l-2.28 0 l0 13.92 l-5.2 0 l0 -28.48 l10.2 0 c1.92 0 3.72 0.76 5.12 2.16 s2.16 3.2 2.16 5.12 c0 2.84 -1.68 5.4 -4.16 6.6 z M72.352 20.88 l5 0 c1.12 0 2.08 -0.92 2.08 -2.08 s-0.96 -2.08 -2.08 -2.08 l-5 0 l0 4.16 z M105.328 40 l-5.4 0 l0 -14.08 l-10.28 -14.4 l6.56 0 l6.44 9 l6.44 -9 l6.52 0 l-10.28 14.4 l0 14.08 z M153.68 40 l-6.32 0 l-10.12 -13.92 l-2.28 0 l0 13.92 l-5.2 0 l0 -28.48 l10.2 0 c1.92 0 3.72 0.76 5.12 2.16 s2.16 3.2 2.16 5.12 c0 2.84 -1.68 5.4 -4.16 6.6 z M134.96 20.88 l5 0 c1.12 0 2.08 -0.92 2.08 -2.08 s-0.96 -2.08 -2.08 -2.08 l-5 0 l0 4.16 z M166.736 40.4 c-6.12 0 -11.08 -4.96 -11.08 -11.08 l0 -17.8 l5.32 0 l0 17.8 c0 3.2 2.6 5.84 5.76 5.84 c3.2 0 5.76 -2.64 5.76 -5.84 l0 -17.8 l5.36 0 l0 17.8 c0 2.96 -1.16 5.76 -3.24 7.84 c-2.12 2.08 -4.92 3.24 -7.88 3.24 z M208.272 40 l-5.16 0 l-12.64 -18.68 l0 18.68 l-5.36 0 l0 -28.48 l5.2 0 l12.6 18.64 l0 -18.64 l5.36 0 l0 28.48 z M239.008 40 l-5.16 0 l-12.64 -18.68 l0 18.68 l-5.36 0 l0 -28.48 l5.2 0 l12.6 18.64 l0 -18.64 l5.36 0 l0 28.48 z M265.46400000000006 40 l-18.4 0 l0 -28.48 l18.76 0 l0 5.2 l-13.4 0 l0 4.2 l11.68 0 l0 5.32 l-11.68 0 l0 8.48 l13.04 0 l0 5.28 z M291.12 40 l-19.88 0 l0 -28.48 l5.36 0 l0 23.24 l14.52 0 l0 5.24 z M315.896 40 l-19.88 0 l0 -28.48 l5.36 0 l0 23.24 l14.52 0 l0 5.24 z M331.03200000000004 40.24 c-0.92 0 -1.88 -0.12 -2.88 -0.32 c-2.96 -0.6 -5.84 -2.04 -8.36 -4.24 l-0.76 -0.68 l3.52 -4 l0.76 0.68 c1.84 1.6 3.88 2.68 5.88 3.08 l0.04 0 c0.6 0.12 1.2 0.2 1.8 0.2 c1 0 1.92 -0.2 2.68 -0.56 c0.96 -0.4 2.08 -1.28 2.08 -2.92 c0 -0.88 -0.44 -1.56 -1.36 -2.12 c-1.12 -0.68 -2.64 -1.04 -3.72 -1.24 c-0.48 -0.08 -4.56 -0.92 -6.44 -1.96 c-1.24 -0.76 -2.2 -1.72 -2.88 -2.84 c-0.68 -1.16 -1 -2.44 -1 -3.84 c0 -1.52 0.48 -3.04 1.4 -4.44 c0.88 -1.16 2.08 -2.12 3.52 -2.8 s3.04 -1.04 4.76 -1.04 c0.68 0 1.4 0.08 2.12 0.16 c2.64 0.48 5.24 1.68 7.52 3.6 l0.76 0.64 l-3.4 4.12 l-0.76 -0.64 c-2.6 -2.12 -4.84 -2.6 -6.28 -2.6 c-0.92 0 -1.76 0.2 -2.48 0.52 c-1.12 0.52 -1.84 1.48 -1.84 2.44 c0 0.88 0.32 1.44 1.08 1.96 s1.92 0.92 3.76 1.32 c0.24 0.04 0.56 0.12 0.88 0.2 c1.68 0.32 3.92 0.8 5.48 1.72 c1.36 0.72 2.4 1.72 3.12 2.88 s1.08 2.52 1.08 3.96 c0 1.8 -0.48 3.4 -1.44 4.76 c-0.84 1.16 -2.08 2.16 -3.72 2.96 c-1.4 0.72 -2.96 1.04 -4.92 1.04 z"/></g><g id="SvgjsG2201" featureKey="sloganFeature-0" transform="matrix(0.8164598205133257,0,0,0.8164598205133257,84.67341560461261,126.29719124697041)" fill="#000"><path d="M16.5 20 l-2.46 0 l-3.6 -6.32 l-3.6 6.32 l-2.46 0 l-3.98 -14.24 l2.8 0 l2.84 10.26 l3.18 -5.56 l2.46 0 l3.16 5.56 l2.86 -10.26 l2.78 0 z M33.164 20 l-9.2 0 l0 -14.24 l9.38 0 l0 2.6 l-6.7 0 l0 2.1 l5.84 0 l0 2.66 l-5.84 0 l0 4.24 l6.52 0 l0 2.64 z M43.488 20 l-6.24 0 l0 -14.24 l5.28 0 c0.96 0 1.9 0.4 2.56 1.08 c0.68 0.66 1.08 1.6 1.08 2.56 c0 0.58 -0.14 1.12 -0.36 1.6 c0.38 0.22 0.74 0.48 1.04 0.8 c0.92 0.9 1.42 2.1 1.42 3.38 s-0.5 2.48 -1.42 3.4 c-0.44 0.44 -0.96 0.8 -1.54 1.04 c-0.58 0.26 -1.2 0.38 -1.82 0.38 z M39.908 17.38 l3.56 0 c1.18 -0.04 2.14 -1.02 2.14 -2.2 c0 -1.16 -0.96 -2.14 -2.12 -2.16 l-3.58 0 l0 4.36 z M39.908 10.4 l2.6 0 c0.56 0 1 -0.46 1 -1 s-0.44 -0.98 -1 -1.02 l-2.6 0 l0 2.02 z M62.156 20 l-4.78 0 l0 -14.24 l4.78 0 c4.02 0 7.3 3.2 7.3 7.12 s-3.28 7.12 -7.3 7.12 z M60.036 17.38 l2.12 0 c2.56 0 4.64 -2.02 4.64 -4.5 s-2.08 -4.5 -4.64 -4.5 l-2.12 0 l0 9 z M82.06 20 l-9.2 0 l0 -14.24 l9.38 0 l0 2.6 l-6.7 0 l0 2.1 l5.84 0 l0 2.66 l-5.84 0 l0 4.24 l6.52 0 l0 2.64 z M92.904 20 l-2.42 0 l-5.5 -14.24 l2.88 0 l3.82 9.94 l3.84 -9.94 l2.86 0 z"/></g>
			</g>
		</svg>
	