<svg width="3018" height="1736" viewBox="0 0 3018 1736" fill="none" xmlns="http://www.w3.org/2000/svg">
<path d="M1994.71 767.347C1994.71 786.842 1979.39 802.16 1959.89 802.16H1667.47C1656.33 825.833 1632.66 842.543 1603.41 842.543H1427.96C1400.11 842.543 1375.04 825.833 1363.9 802.16H1071.47C1051.98 802.16 1036.66 786.842 1036.66 767.347C1036.66 747.852 1051.98 732.535 1071.47 732.535H1391.75C1411.25 732.535 1426.56 747.852 1426.56 767.347V772.917H1603.41V767.347C1603.41 747.852 1618.73 732.535 1638.23 732.535H1959.89C1978 732.535 1994.71 749.245 1994.71 767.347ZM2072.69 966.476H958.681C884.878 966.476 825 906.598 825 832.795V767.347C825 747.852 840.318 732.535 859.813 732.535H925.261V104.513C925.261 54.3827 965.643 14 1015.77 14H2011.42C2060.16 14 2100.54 51.5977 2104.72 101.728C2104.72 103.121 2104.72 104.513 2104.72 104.513V732.535H2170.16C2189.66 732.535 2204.98 747.852 2204.98 767.347V832.795C2206.37 906.598 2146.49 966.476 2072.69 966.476ZM958.681 896.851H2072.69C2107.5 896.851 2136.74 867.608 2136.74 832.795V802.16H2071.3C2051.8 802.16 2036.48 786.842 2036.48 767.347V107.298C2035.09 94.7655 2023.95 83.6254 2012.81 83.6254H1015.77C1004.63 83.6254 994.886 93.373 994.886 104.513V767.347C994.886 786.842 979.568 802.16 960.073 802.16H894.625V832.795C894.625 869 923.868 896.851 958.681 896.851ZM1664.68 593.284C1671.65 601.639 1681.39 605.816 1691.14 605.816C1699.5 605.816 1706.46 603.031 1713.42 597.461L1886.09 451.248C1894.45 444.285 1898.62 434.538 1898.62 424.79C1898.62 415.043 1894.45 405.295 1886.09 398.332L1713.42 250.727C1698.1 238.194 1677.22 239.586 1664.68 254.904C1652.15 270.222 1653.54 291.109 1668.86 303.642L1810.9 423.398L1668.86 543.153C1653.54 555.686 1652.15 577.966 1664.68 593.284ZM1317.95 597.461C1324.91 603.031 1331.87 605.816 1340.23 605.816C1349.98 605.816 1359.72 601.639 1366.69 593.284C1379.22 577.966 1377.83 557.078 1362.51 544.546L1221.87 424.79L1362.51 303.642C1377.83 291.109 1379.22 268.829 1366.69 254.904C1354.15 239.586 1331.87 238.194 1317.95 250.727L1145.28 396.94C1136.92 403.902 1132.74 413.65 1132.74 423.398C1132.74 433.145 1136.92 442.893 1145.28 449.855L1317.95 597.461ZM1429.35 639.237C1433.53 640.629 1437.7 642.022 1441.88 642.022C1455.81 642.022 1468.34 633.666 1473.91 619.741L1620.12 253.512C1627.09 235.409 1618.73 215.914 1600.63 208.951C1582.52 201.989 1563.03 210.344 1556.07 228.446L1409.85 594.676C1402.89 611.386 1411.25 632.274 1429.35 639.237Z" fill="#D80032"/>
<path d="M2111.68 101.728V101.438L2111.65 101.15C2107.19 47.5287 2063.89 7.03746 2011.42 7.03746H1015.77C961.798 7.03746 918.298 50.5374 918.298 104.513V725.572H859.813C836.472 725.572 818.037 744.007 818.037 767.347V832.795C818.037 910.444 881.033 973.439 958.681 973.439H2072.69C2150.29 973.439 2213.37 910.475 2211.94 832.729V767.347C2211.94 744.007 2193.5 725.572 2170.16 725.572H2111.68V104.513V104.512V104.511V104.51V104.509V104.507V104.506V104.505V104.503V104.502V104.5V104.499V104.498V104.497V104.496V104.495V104.494V104.493V104.492V104.491V104.489V104.488V104.487V104.486V104.484V104.483V104.482V104.48V104.479V104.477V104.476V104.475V104.473V104.471V104.47V104.468V104.467V104.465V104.463V104.461V104.46V104.458V104.456V104.454V104.452V104.451V104.449V104.447V104.445V104.443V104.441V104.439V104.436V104.434V104.432V104.43V104.428V104.426V104.423V104.421V104.419V104.416V104.414V104.412V104.409V104.407V104.404V104.402V104.399V104.397V104.394V104.392V104.389V104.386V104.384V104.381V104.378V104.375V104.373V104.37V104.367V104.364V104.361V104.358V104.355V104.352V104.349V104.346V104.343V104.34V104.337V104.334V104.331V104.328V104.325V104.321V104.318V104.315V104.312V104.308V104.305V104.302V104.298V104.295V104.291V104.288V104.284V104.281V104.277V104.274V104.27V104.267V104.263V104.259V104.256V104.252V104.248V104.244V104.241V104.237V104.233V104.229V104.225V104.221V104.218V104.214V104.21V104.206V104.202V104.198V104.194V104.19V104.185V104.181V104.177V104.173V104.169V104.165V104.16V104.156V104.152V104.148V104.143V104.139V104.135V104.13V104.126V104.121V104.117V104.112V104.108V104.103V104.099V104.094V104.09V104.085V104.081V104.076V104.071V104.067V104.062V104.057V104.053V104.048V104.043V104.038V104.033V104.029V104.024V104.019V104.014V104.009V104.004V103.999V103.994V103.989V103.984V103.979V103.974V103.969V103.964V103.959V103.953V103.948V103.943V103.938V103.933V103.928V103.922V103.917V103.912V103.906V103.901V103.896V103.89V103.885V103.88V103.874V103.869V103.863V103.858V103.852V103.847V103.841V103.836V103.83V103.824V103.819V103.813V103.808V103.802V103.796V103.791V103.785V103.779V103.773V103.768V103.762V103.756V103.75V103.744V103.739V103.733V103.727V103.721V103.715V103.709V103.703V103.697V103.691V103.685V103.679V103.673V103.667V103.661V103.655V103.649V103.643V103.637V103.63V103.624V103.618V103.612V103.606V103.6V103.593V103.587V103.581V103.574V103.568V103.562V103.556V103.549V103.543V103.536V103.53V103.524V103.517V103.511V103.504V103.498V103.491V103.485V103.478V103.472V103.465V103.459V103.452V103.446V103.439V103.433V103.426V103.419V103.413V103.406V103.399V103.393V103.386V103.379V103.372V103.366V103.359V103.352V103.345V103.339V103.332V103.325V103.318V103.311V103.304V103.298V103.291V103.284V103.277V103.27V103.263V103.256V103.249V103.242V103.235V103.228V103.221V103.214V103.207V103.2V103.193V103.186V103.179V103.172V103.165V103.158V103.15V103.143V103.136V103.129V103.122V103.115V103.108V103.1V103.093V103.086V103.079V103.071V103.064V103.057V103.05V103.042V103.035V103.028V103.02V103.013V103.006V102.998V102.991V102.984V102.976V102.969V102.962V102.954V102.947V102.939V102.932V102.924V102.917V102.909V102.902V102.895V102.887V102.88V102.872V102.864V102.857V102.849V102.842V102.834V102.827V102.819V102.812V102.804V102.796V102.789V102.781V102.774V102.766V102.758V102.751V102.743V102.735V102.728V102.72V102.712V102.705V102.697V102.689V102.682V102.674V102.666V102.658V102.651V102.643V102.635V102.627V102.62V102.612V102.604V102.596V102.588V102.581V102.573V102.565V102.557V102.549V102.541V102.534V102.526V102.518V102.51V102.502V102.494V102.486V102.479V102.471V102.463V102.455V102.447V102.439V102.431V102.423V102.415V102.407V102.399V102.391V102.383V102.375V102.368V102.36V102.352V102.344V102.336V102.328V102.32V102.312V102.304V102.296V102.288V102.28V102.272V102.264V102.256V102.248V102.24V102.231V102.223V102.215V102.207V102.199V102.191V102.183V102.175V102.167V102.159V102.151V102.143V102.135V102.127V102.119V102.11V102.102V102.094V102.086V102.078V102.07V102.062V102.054V102.046V102.038V102.029V102.021V102.013V102.005V101.997V101.989V101.981V101.973V101.964V101.956V101.948V101.94V101.932V101.924V101.916V101.907V101.899V101.891V101.883V101.875V101.867V101.859V101.85V101.842V101.834V101.826V101.818V101.81V101.801V101.793V101.785V101.777V101.769V101.761V101.753V101.744V101.736V101.728ZM1659.29 597.693L1659.31 597.717L1659.33 597.741C1667.66 607.728 1679.38 612.779 1691.14 612.779C1701.33 612.779 1709.79 609.286 1717.77 602.898L1717.85 602.837L1717.92 602.775L1890.55 456.597C1890.56 456.591 1890.56 456.586 1890.57 456.581C1900.54 448.26 1905.59 436.539 1905.59 424.79C1905.59 413.049 1900.55 401.336 1890.59 393.016C1890.57 393.005 1890.56 392.994 1890.55 392.984L1717.94 245.434L1717.89 245.385L1717.83 245.338C1699.74 230.537 1674.43 232.002 1659.29 250.495C1644.5 268.571 1645.96 293.861 1664.41 308.996C1664.42 309.007 1664.44 309.019 1664.45 309.031L1800.09 423.398L1664.45 537.765C1664.44 537.776 1664.42 537.786 1664.41 537.797C1645.93 552.959 1644.53 579.647 1659.29 597.693ZM1313.42 602.754L1313.51 602.827L1313.6 602.898C1321.58 609.286 1330.04 612.779 1340.23 612.779C1351.98 612.779 1363.71 607.728 1372.03 597.741L1372.05 597.717L1372.07 597.693C1386.86 579.62 1385.41 554.338 1366.97 539.202L1232.57 424.76L1366.99 308.972C1385.25 293.966 1387.04 267.254 1371.97 250.369C1356.95 232.146 1330.24 230.382 1313.37 245.478L1140.82 391.591C1140.81 391.598 1140.8 391.604 1140.8 391.611C1130.83 399.932 1125.78 411.651 1125.78 423.398C1125.78 435.139 1130.82 446.853 1140.78 455.173C1140.79 455.183 1140.81 455.194 1140.82 455.204L1313.42 602.754ZM1426.85 645.735L1427 645.792L1427.15 645.842L1427.55 645.977C1431.45 647.278 1436.56 648.984 1441.88 648.984C1458.73 648.984 1473.78 638.821 1480.37 622.327L1480.38 622.323L1626.59 256.093L1626.61 256.052L1626.62 256.011C1634.93 234.419 1624.92 210.834 1603.13 202.453C1581.55 194.153 1557.98 204.144 1549.58 225.906C1549.58 225.92 1549.57 225.933 1549.57 225.947L1403.43 591.998C1403.42 592.016 1403.41 592.033 1403.41 592.05C1394.98 612.344 1405.08 637.362 1426.85 645.735ZM1959.89 809.123C1983.24 809.123 2001.67 790.688 2001.67 767.347C2001.67 756.16 1996.54 745.755 1989.01 738.229C1981.49 730.703 1971.08 725.572 1959.89 725.572H1638.23C1615.35 725.572 1597.19 743.278 1596.47 765.955H1433.5C1432.79 743.278 1414.63 725.572 1391.75 725.572H1071.47C1048.13 725.572 1029.7 744.007 1029.7 767.347C1029.7 790.688 1048.13 809.123 1071.47 809.123H1359.63C1372.73 833.048 1398.95 849.505 1427.96 849.505H1603.41C1633.81 849.505 1658.8 832.987 1671.75 809.123H1959.89ZM2072.69 889.888H958.681C927.614 889.888 901.588 865.057 901.588 832.795V809.123H960.073C983.414 809.123 1001.85 790.688 1001.85 767.347V104.513C1001.85 97.2183 1008.48 90.588 1015.77 90.588H2012.81C2016.08 90.588 2019.98 92.2824 2023.38 95.6853C2026.66 98.9655 2028.94 103.318 2029.52 107.716V767.347C2029.52 790.688 2047.95 809.123 2071.3 809.123H2129.78V832.795C2129.78 863.763 2103.66 889.888 2072.69 889.888Z" stroke="black" stroke-opacity="0.5" stroke-width="13.9251"/>
<mask id="path-3-outside-1" maskUnits="userSpaceOnUse" x="0" y="1193" width="3018" height="281" fill="black">
<rect fill="white" y="1193" width="3018" height="281"/>
<path d="M140.743 1465.13C123.083 1465.13 105.776 1461.6 89.5293 1454.89C73.9886 1448.18 59.8606 1438.64 47.8519 1426.63C35.4899 1414.63 25.9535 1400.5 19.596 1384.6C12.532 1368.36 9 1351.4 9 1333.39C9 1260.98 68.3374 1202 140.743 1202C161.229 1202 181.714 1206.94 199.727 1216.13C217.741 1224.96 233.988 1238.73 245.996 1254.98L251.648 1262.04L213.855 1289.95L208.557 1282.88C192.663 1261.34 167.939 1248.98 140.743 1248.98C94.1209 1248.98 55.9754 1286.77 55.9754 1333.39C55.9754 1380.37 94.1209 1418.51 140.743 1418.51C167.586 1418.51 192.31 1406.15 208.557 1384.6L213.855 1377.89L251.294 1405.44L245.643 1412.51C233.281 1429.11 217.741 1442.18 199.374 1451.36C181.361 1460.54 161.229 1465.13 140.743 1465.13ZM415.673 1464.78C343.267 1464.78 284.283 1406.15 284.283 1333.74C284.283 1260.98 343.267 1202 415.673 1202C488.432 1202 547.416 1260.98 547.416 1333.74C547.416 1406.15 488.432 1464.78 415.673 1464.78ZM415.673 1248.98C369.404 1248.98 331.612 1286.77 331.612 1333.74C331.612 1380.37 369.404 1418.16 415.673 1418.16C461.942 1418.16 499.734 1380.37 499.734 1333.74C499.734 1286.77 461.942 1248.98 415.673 1248.98ZM801.154 1461.25H745.349L655.99 1338.33H635.857V1461.25H589.941V1209.77H680.007C696.961 1209.77 712.855 1216.48 725.217 1228.84C737.579 1241.21 744.289 1257.1 744.289 1274.05C744.289 1299.13 729.455 1321.73 707.557 1332.33L801.154 1461.25ZM635.857 1292.42H680.007C689.897 1292.42 698.374 1284.3 698.374 1274.05C698.374 1263.81 689.897 1255.69 680.007 1255.69H635.857V1292.42ZM927.034 1461.25H879.353V1336.92L788.581 1209.77H846.505L903.37 1289.24L960.235 1209.77H1017.81L927.034 1336.92V1461.25ZM1353.98 1461.25H1298.18L1208.82 1338.33H1188.68V1461.25H1142.77V1209.77H1232.83C1249.79 1209.77 1265.68 1216.48 1278.04 1228.84C1290.41 1241.21 1297.12 1257.1 1297.12 1274.05C1297.12 1299.13 1282.28 1321.73 1260.38 1332.33L1353.98 1461.25ZM1188.68 1292.42H1232.83C1242.72 1292.42 1251.2 1284.3 1251.2 1274.05C1251.2 1263.81 1242.72 1255.69 1232.83 1255.69H1188.68V1292.42ZM1469.27 1464.78C1415.23 1464.78 1371.43 1420.98 1371.43 1366.94V1209.77H1418.4V1366.94C1418.4 1395.2 1441.36 1418.51 1469.27 1418.51C1497.52 1418.51 1520.13 1395.2 1520.13 1366.94V1209.77H1567.45V1366.94C1567.45 1393.08 1557.21 1417.8 1538.85 1436.17C1520.13 1454.54 1495.4 1464.78 1469.27 1464.78ZM1836.03 1461.25H1790.46L1678.85 1296.3V1461.25H1631.52V1209.77H1677.44L1788.7 1374.36V1209.77H1836.03V1461.25ZM2107.43 1461.25H2061.86L1950.25 1296.3V1461.25H1902.92V1209.77H1948.84L2060.1 1374.36V1209.77H2107.43V1461.25ZM2341.03 1461.25H2178.56V1209.77H2344.21V1255.69H2225.89V1292.77H2329.02V1339.75H2225.89V1414.63H2341.03V1461.25ZM2567.57 1461.25H2392.03V1209.77H2439.36V1414.98H2567.57V1461.25ZM2786.34 1461.25H2610.8V1209.77H2658.13V1414.98H2786.34V1461.25ZM2919.99 1463.37C2911.87 1463.37 2903.39 1462.31 2894.56 1460.54C2868.43 1455.24 2843 1442.53 2820.75 1423.1L2814.03 1417.1L2845.12 1381.78L2851.83 1387.78C2868.07 1401.91 2886.09 1411.45 2903.75 1414.98H2904.1C2909.4 1416.04 2914.7 1416.74 2919.99 1416.74C2928.82 1416.74 2936.95 1414.98 2943.66 1411.8C2952.14 1408.27 2962.03 1400.5 2962.03 1386.02C2962.03 1378.25 2958.14 1372.24 2950.02 1367.3C2940.13 1361.29 2926.71 1358.11 2917.17 1356.35C2912.93 1355.64 2876.9 1348.22 2860.3 1339.04C2849.35 1332.33 2840.88 1323.85 2834.87 1313.96C2828.87 1303.72 2826.04 1292.42 2826.04 1280.06C2826.04 1266.64 2830.28 1253.21 2838.41 1240.85C2846.18 1230.61 2856.77 1222.13 2869.49 1216.13C2882.2 1210.12 2896.33 1206.94 2911.52 1206.94C2917.52 1206.94 2923.88 1207.65 2930.24 1208.36C2953.55 1212.6 2976.51 1223.19 2996.64 1240.15L3003.35 1245.8L2973.33 1282.18L2966.62 1276.52C2943.66 1257.81 2923.88 1253.57 2911.16 1253.57C2903.04 1253.57 2895.62 1255.33 2889.27 1258.16C2879.38 1262.75 2873.02 1271.23 2873.02 1279.7C2873.02 1287.47 2875.84 1292.42 2882.56 1297.01C2889.27 1301.6 2899.51 1305.13 2915.76 1308.67C2917.88 1309.02 2920.7 1309.73 2923.53 1310.43C2938.36 1313.26 2958.14 1317.5 2971.91 1325.62C2983.92 1331.98 2993.11 1340.81 2999.46 1351.05C3005.82 1361.29 3009 1373.3 3009 1386.02C3009 1401.91 3004.76 1416.04 2996.29 1428.05C2988.87 1438.29 2977.92 1447.12 2963.44 1454.18C2951.08 1460.54 2937.3 1463.37 2919.99 1463.37Z"/>
</mask>
<path d="M140.743 1465.13C123.083 1465.13 105.776 1461.6 89.5293 1454.89C73.9886 1448.18 59.8606 1438.64 47.8519 1426.63C35.4899 1414.63 25.9535 1400.5 19.596 1384.6C12.532 1368.36 9 1351.4 9 1333.39C9 1260.98 68.3374 1202 140.743 1202C161.229 1202 181.714 1206.94 199.727 1216.13C217.741 1224.96 233.988 1238.73 245.996 1254.98L251.648 1262.04L213.855 1289.95L208.557 1282.88C192.663 1261.34 167.939 1248.98 140.743 1248.98C94.1209 1248.98 55.9754 1286.77 55.9754 1333.39C55.9754 1380.37 94.1209 1418.51 140.743 1418.51C167.586 1418.51 192.31 1406.15 208.557 1384.6L213.855 1377.89L251.294 1405.44L245.643 1412.51C233.281 1429.11 217.741 1442.18 199.374 1451.36C181.361 1460.54 161.229 1465.13 140.743 1465.13ZM415.673 1464.78C343.267 1464.78 284.283 1406.15 284.283 1333.74C284.283 1260.98 343.267 1202 415.673 1202C488.432 1202 547.416 1260.98 547.416 1333.74C547.416 1406.15 488.432 1464.78 415.673 1464.78ZM415.673 1248.98C369.404 1248.98 331.612 1286.77 331.612 1333.74C331.612 1380.37 369.404 1418.16 415.673 1418.16C461.942 1418.16 499.734 1380.37 499.734 1333.74C499.734 1286.77 461.942 1248.98 415.673 1248.98ZM801.154 1461.25H745.349L655.99 1338.33H635.857V1461.25H589.941V1209.77H680.007C696.961 1209.77 712.855 1216.48 725.217 1228.84C737.579 1241.21 744.289 1257.1 744.289 1274.05C744.289 1299.13 729.455 1321.73 707.557 1332.33L801.154 1461.25ZM635.857 1292.42H680.007C689.897 1292.42 698.374 1284.3 698.374 1274.05C698.374 1263.81 689.897 1255.69 680.007 1255.69H635.857V1292.42ZM927.034 1461.25H879.353V1336.92L788.581 1209.77H846.505L903.37 1289.24L960.235 1209.77H1017.81L927.034 1336.92V1461.25ZM1353.98 1461.25H1298.18L1208.82 1338.33H1188.68V1461.25H1142.77V1209.77H1232.83C1249.79 1209.77 1265.68 1216.48 1278.04 1228.84C1290.41 1241.21 1297.12 1257.1 1297.12 1274.05C1297.12 1299.13 1282.28 1321.73 1260.38 1332.33L1353.98 1461.25ZM1188.68 1292.42H1232.83C1242.72 1292.42 1251.2 1284.3 1251.2 1274.05C1251.2 1263.81 1242.72 1255.69 1232.83 1255.69H1188.68V1292.42ZM1469.27 1464.78C1415.23 1464.78 1371.43 1420.98 1371.43 1366.94V1209.77H1418.4V1366.94C1418.4 1395.2 1441.36 1418.51 1469.27 1418.51C1497.52 1418.51 1520.13 1395.2 1520.13 1366.94V1209.77H1567.45V1366.94C1567.45 1393.08 1557.21 1417.8 1538.85 1436.17C1520.13 1454.54 1495.4 1464.78 1469.27 1464.78ZM1836.03 1461.25H1790.46L1678.85 1296.3V1461.25H1631.52V1209.77H1677.44L1788.7 1374.36V1209.77H1836.03V1461.25ZM2107.43 1461.25H2061.86L1950.25 1296.3V1461.25H1902.92V1209.77H1948.84L2060.1 1374.36V1209.77H2107.43V1461.25ZM2341.03 1461.25H2178.56V1209.77H2344.21V1255.69H2225.89V1292.77H2329.02V1339.75H2225.89V1414.63H2341.03V1461.25ZM2567.57 1461.25H2392.03V1209.77H2439.36V1414.98H2567.57V1461.25ZM2786.34 1461.25H2610.8V1209.77H2658.13V1414.98H2786.34V1461.25ZM2919.99 1463.37C2911.87 1463.37 2903.39 1462.31 2894.56 1460.54C2868.43 1455.24 2843 1442.53 2820.75 1423.1L2814.03 1417.1L2845.12 1381.78L2851.83 1387.78C2868.07 1401.91 2886.09 1411.45 2903.75 1414.98H2904.1C2909.4 1416.04 2914.7 1416.74 2919.99 1416.74C2928.82 1416.74 2936.95 1414.98 2943.66 1411.8C2952.14 1408.27 2962.03 1400.5 2962.03 1386.02C2962.03 1378.25 2958.14 1372.24 2950.02 1367.3C2940.13 1361.29 2926.71 1358.11 2917.17 1356.35C2912.93 1355.64 2876.9 1348.22 2860.3 1339.04C2849.35 1332.33 2840.88 1323.85 2834.87 1313.96C2828.87 1303.72 2826.04 1292.42 2826.04 1280.06C2826.04 1266.64 2830.28 1253.21 2838.41 1240.85C2846.18 1230.61 2856.77 1222.13 2869.49 1216.13C2882.2 1210.12 2896.33 1206.94 2911.52 1206.94C2917.52 1206.94 2923.88 1207.65 2930.24 1208.36C2953.55 1212.6 2976.51 1223.19 2996.64 1240.15L3003.35 1245.8L2973.33 1282.18L2966.62 1276.52C2943.66 1257.81 2923.88 1253.57 2911.16 1253.57C2903.04 1253.57 2895.62 1255.33 2889.27 1258.16C2879.38 1262.75 2873.02 1271.23 2873.02 1279.7C2873.02 1287.47 2875.84 1292.42 2882.56 1297.01C2889.27 1301.6 2899.51 1305.13 2915.76 1308.67C2917.88 1309.02 2920.7 1309.73 2923.53 1310.43C2938.36 1313.26 2958.14 1317.5 2971.91 1325.62C2983.92 1331.98 2993.11 1340.81 2999.46 1351.05C3005.82 1361.29 3009 1373.3 3009 1386.02C3009 1401.91 3004.76 1416.04 2996.29 1428.05C2988.87 1438.29 2977.92 1447.12 2963.44 1454.18C2951.08 1460.54 2937.3 1463.37 2919.99 1463.37Z" fill="#D80032"/>
<path d="M140.743 1465.13C123.083 1465.13 105.776 1461.6 89.5293 1454.89C73.9886 1448.18 59.8606 1438.64 47.8519 1426.63C35.4899 1414.63 25.9535 1400.5 19.596 1384.6C12.532 1368.36 9 1351.4 9 1333.39C9 1260.98 68.3374 1202 140.743 1202C161.229 1202 181.714 1206.94 199.727 1216.13C217.741 1224.96 233.988 1238.73 245.996 1254.98L251.648 1262.04L213.855 1289.95L208.557 1282.88C192.663 1261.34 167.939 1248.98 140.743 1248.98C94.1209 1248.98 55.9754 1286.77 55.9754 1333.39C55.9754 1380.37 94.1209 1418.51 140.743 1418.51C167.586 1418.51 192.31 1406.15 208.557 1384.6L213.855 1377.89L251.294 1405.44L245.643 1412.51C233.281 1429.11 217.741 1442.18 199.374 1451.36C181.361 1460.54 161.229 1465.13 140.743 1465.13ZM415.673 1464.78C343.267 1464.78 284.283 1406.15 284.283 1333.74C284.283 1260.98 343.267 1202 415.673 1202C488.432 1202 547.416 1260.98 547.416 1333.74C547.416 1406.15 488.432 1464.78 415.673 1464.78ZM415.673 1248.98C369.404 1248.98 331.612 1286.77 331.612 1333.74C331.612 1380.37 369.404 1418.16 415.673 1418.16C461.942 1418.16 499.734 1380.37 499.734 1333.74C499.734 1286.77 461.942 1248.98 415.673 1248.98ZM801.154 1461.25H745.349L655.99 1338.33H635.857V1461.25H589.941V1209.77H680.007C696.961 1209.77 712.855 1216.48 725.217 1228.84C737.579 1241.21 744.289 1257.1 744.289 1274.05C744.289 1299.13 729.455 1321.73 707.557 1332.33L801.154 1461.25ZM635.857 1292.42H680.007C689.897 1292.42 698.374 1284.3 698.374 1274.05C698.374 1263.81 689.897 1255.69 680.007 1255.69H635.857V1292.42ZM927.034 1461.25H879.353V1336.92L788.581 1209.77H846.505L903.37 1289.24L960.235 1209.77H1017.81L927.034 1336.92V1461.25ZM1353.98 1461.25H1298.18L1208.82 1338.33H1188.68V1461.25H1142.77V1209.77H1232.83C1249.79 1209.77 1265.68 1216.48 1278.04 1228.84C1290.41 1241.21 1297.12 1257.1 1297.12 1274.05C1297.12 1299.13 1282.28 1321.73 1260.38 1332.33L1353.98 1461.25ZM1188.68 1292.42H1232.83C1242.72 1292.42 1251.2 1284.3 1251.2 1274.05C1251.2 1263.81 1242.72 1255.69 1232.83 1255.69H1188.68V1292.42ZM1469.27 1464.78C1415.23 1464.78 1371.43 1420.98 1371.43 1366.94V1209.77H1418.4V1366.94C1418.4 1395.2 1441.36 1418.51 1469.27 1418.51C1497.52 1418.51 1520.13 1395.2 1520.13 1366.94V1209.77H1567.45V1366.94C1567.45 1393.08 1557.21 1417.8 1538.85 1436.17C1520.13 1454.54 1495.4 1464.78 1469.27 1464.78ZM1836.03 1461.25H1790.46L1678.85 1296.3V1461.25H1631.52V1209.77H1677.44L1788.7 1374.36V1209.77H1836.03V1461.25ZM2107.43 1461.25H2061.86L1950.25 1296.3V1461.25H1902.92V1209.77H1948.84L2060.1 1374.36V1209.77H2107.43V1461.25ZM2341.03 1461.25H2178.56V1209.77H2344.21V1255.69H2225.89V1292.77H2329.02V1339.75H2225.89V1414.63H2341.03V1461.25ZM2567.57 1461.25H2392.03V1209.77H2439.36V1414.98H2567.57V1461.25ZM2786.34 1461.25H2610.8V1209.77H2658.13V1414.98H2786.34V1461.25ZM2919.99 1463.37C2911.87 1463.37 2903.39 1462.31 2894.56 1460.54C2868.43 1455.24 2843 1442.53 2820.75 1423.1L2814.03 1417.1L2845.12 1381.78L2851.83 1387.78C2868.07 1401.91 2886.09 1411.45 2903.75 1414.98H2904.1C2909.4 1416.04 2914.7 1416.74 2919.99 1416.74C2928.82 1416.74 2936.95 1414.98 2943.66 1411.8C2952.14 1408.27 2962.03 1400.5 2962.03 1386.02C2962.03 1378.25 2958.14 1372.24 2950.02 1367.3C2940.13 1361.29 2926.71 1358.11 2917.17 1356.35C2912.93 1355.64 2876.9 1348.22 2860.3 1339.04C2849.35 1332.33 2840.88 1323.85 2834.87 1313.96C2828.87 1303.72 2826.04 1292.42 2826.04 1280.06C2826.04 1266.64 2830.28 1253.21 2838.41 1240.85C2846.18 1230.61 2856.77 1222.13 2869.49 1216.13C2882.2 1210.12 2896.33 1206.94 2911.52 1206.94C2917.52 1206.94 2923.88 1207.65 2930.24 1208.36C2953.55 1212.6 2976.51 1223.19 2996.64 1240.15L3003.35 1245.8L2973.33 1282.18L2966.62 1276.52C2943.66 1257.81 2923.88 1253.57 2911.16 1253.57C2903.04 1253.57 2895.62 1255.33 2889.27 1258.16C2879.38 1262.75 2873.02 1271.23 2873.02 1279.7C2873.02 1287.47 2875.84 1292.42 2882.56 1297.01C2889.27 1301.6 2899.51 1305.13 2915.76 1308.67C2917.88 1309.02 2920.7 1309.73 2923.53 1310.43C2938.36 1313.26 2958.14 1317.5 2971.91 1325.62C2983.92 1331.98 2993.11 1340.81 2999.46 1351.05C3005.82 1361.29 3009 1373.3 3009 1386.02C3009 1401.91 3004.76 1416.04 2996.29 1428.05C2988.87 1438.29 2977.92 1447.12 2963.44 1454.18C2951.08 1460.54 2937.3 1463.37 2919.99 1463.37Z" stroke="black" stroke-opacity="0.5" stroke-width="17.6599" mask="url(#path-3-outside-1)"/>
<path d="M1186.74 1725.52H1162.64L1127.37 1663.6L1092.1 1725.52H1067.99L1029 1586H1056.43L1084.26 1686.52L1115.41 1632.05H1139.52L1170.48 1686.52L1198.5 1586H1225.73L1186.74 1725.52ZM1350.01 1725.52H1259.87V1586H1351.77V1611.47H1286.13V1632.05H1343.34V1658.11H1286.13V1699.65H1350.01V1725.52ZM1451.16 1725.52H1390.02V1586H1441.75C1451.16 1586 1460.37 1589.92 1466.83 1596.58C1473.49 1603.05 1477.41 1612.26 1477.41 1621.66C1477.41 1627.35 1476.04 1632.64 1473.89 1637.34C1477.61 1639.49 1481.14 1642.04 1484.08 1645.18C1493.09 1653.99 1497.99 1665.75 1497.99 1678.29C1497.99 1690.83 1493.09 1702.59 1484.08 1711.6C1479.76 1715.92 1474.67 1719.44 1468.99 1721.79C1463.3 1724.34 1457.23 1725.52 1451.16 1725.52ZM1416.08 1699.85H1450.96C1462.52 1699.46 1471.93 1689.85 1471.93 1678.29C1471.93 1666.93 1462.52 1657.33 1451.16 1657.13H1416.08V1699.85ZM1416.08 1631.46H1441.55C1447.04 1631.46 1451.35 1626.95 1451.35 1621.66C1451.35 1616.37 1447.04 1612.06 1441.55 1611.67H1416.08V1631.46ZM1634.06 1725.52H1587.22V1586H1634.06C1673.44 1586 1705.58 1617.35 1705.58 1655.76C1705.58 1694.16 1673.44 1725.52 1634.06 1725.52ZM1613.28 1699.85H1634.06C1659.14 1699.85 1679.52 1680.06 1679.52 1655.76C1679.52 1631.46 1659.14 1611.67 1634.06 1611.67H1613.28V1699.85ZM1829.07 1725.52H1738.93V1586H1830.83V1611.47H1765.19V1632.05H1822.4V1658.11H1765.19V1699.65H1829.07V1725.52ZM1935.31 1725.52H1911.6L1857.71 1586H1885.93L1923.36 1683.39L1960.98 1586H1989L1935.31 1725.52Z" fill="#D80032"/>
<path d="M1186.74 1730.42H1190.46L1191.46 1726.84L1230.45 1587.32L1232.19 1581.1H1225.73H1198.5H1194.78L1193.78 1584.68L1168.92 1673.87L1143.77 1629.63L1142.37 1627.15H1139.52H1115.41H1112.57L1111.16 1629.62L1085.84 1673.88L1061.15 1584.69L1060.16 1581.1H1056.43H1029H1022.54L1024.28 1587.32L1063.28 1726.84L1064.28 1730.42H1067.99H1092.1H1094.94L1096.35 1727.94L1127.37 1673.49L1158.38 1727.94L1159.79 1730.42H1162.64H1186.74ZM1350.01 1730.42H1354.9V1725.52V1699.65V1694.75H1350.01H1291.02V1663.01H1343.34H1348.24V1658.11V1632.05V1627.15H1343.34H1291.02V1616.37H1351.77H1356.67V1611.47V1586V1581.1H1351.77H1259.87H1254.97V1586V1725.52V1730.42H1259.87H1350.01ZM1385.12 1725.52V1730.42H1390.02H1451.16C1457.84 1730.42 1464.58 1729.13 1470.93 1726.29C1477.23 1723.68 1482.83 1719.78 1487.54 1715.07C1497.46 1705.15 1502.89 1692.15 1502.89 1678.29C1502.89 1664.48 1497.49 1651.49 1487.58 1641.75C1485.25 1639.29 1482.66 1637.18 1479.96 1635.36C1481.42 1631.14 1482.31 1626.54 1482.31 1621.66C1482.31 1610.96 1477.88 1600.5 1470.3 1593.12C1462.91 1585.54 1452.45 1581.1 1441.75 1581.1H1390.02H1385.12V1586V1725.52ZM1582.32 1725.52V1730.42H1587.22H1634.06C1676.03 1730.42 1710.48 1696.98 1710.48 1655.76C1710.48 1614.53 1676.03 1581.1 1634.06 1581.1H1587.22H1582.32V1586V1725.52ZM1829.07 1730.42H1833.96V1725.52V1699.65V1694.75H1829.07H1770.08V1663.01H1822.4H1827.3V1658.11V1632.05V1627.15H1822.4H1770.08V1616.37H1830.83H1835.73V1611.47V1586V1581.1H1830.83H1738.93H1734.03V1586V1725.52V1730.42H1738.93H1829.07ZM1935.31 1730.42H1938.67L1939.88 1727.28L1993.57 1587.76L1996.13 1581.1H1989H1960.98H1957.62L1956.41 1584.23L1923.37 1669.76L1890.5 1584.24L1889.3 1581.1H1885.93H1857.71H1850.57L1853.14 1587.77L1907.03 1727.28L1908.24 1730.42H1911.6H1935.31ZM1467.03 1678.29C1467.03 1687.15 1459.8 1694.6 1450.87 1694.95H1420.98V1662.03H1451.11C1459.78 1662.2 1467.03 1669.6 1467.03 1678.29ZM1441.55 1626.56H1420.98V1616.57H1441.36C1444.45 1616.86 1446.45 1619.23 1446.45 1621.66C1446.45 1624.31 1444.27 1626.56 1441.55 1626.56ZM1634.06 1694.95H1618.18V1616.57H1634.06C1656.57 1616.57 1674.62 1634.3 1674.62 1655.76C1674.62 1677.21 1656.57 1694.95 1634.06 1694.95Z" stroke="black" stroke-opacity="0.5" stroke-width="9.79752"/>
</svg>
