<svg width="3000" height="1712" viewBox="0 0 3000 1712" fill="none" xmlns="http://www.w3.org/2000/svg">
<path d="M1985.71 753.347C1985.71 772.842 1970.39 788.16 1950.89 788.16H1658.47C1647.33 811.833 1623.66 828.543 1594.41 828.543H1418.96C1391.11 828.543 1366.04 811.833 1354.9 788.16H1062.47C1042.98 788.16 1027.66 772.842 1027.66 753.347C1027.66 733.852 1042.98 718.535 1062.47 718.535H1382.75C1402.25 718.535 1417.56 733.852 1417.56 753.347V758.917H1594.41V753.347C1594.41 733.852 1609.73 718.535 1629.23 718.535H1950.89C1969 718.535 1985.71 735.245 1985.71 753.347ZM2063.69 952.476H949.681C875.878 952.476 816 892.598 816 818.795V753.347C816 733.852 831.318 718.535 850.813 718.535H916.261V90.5131C916.261 40.3827 956.643 0 1006.77 0H2002.42C2051.16 0 2091.54 37.5977 2095.72 87.7281C2095.72 89.1206 2095.72 90.5131 2095.72 90.5131V718.535H2161.16C2180.66 718.535 2195.98 733.852 2195.98 753.347V818.795C2197.37 892.598 2137.49 952.476 2063.69 952.476ZM949.681 882.851H2063.69C2098.5 882.851 2127.74 853.608 2127.74 818.795V788.16H2062.3C2042.8 788.16 2027.48 772.842 2027.48 753.347V93.2981C2026.09 80.7655 2014.95 69.6254 2003.81 69.6254H1006.77C995.634 69.6254 985.886 79.373 985.886 90.5131V753.347C985.886 772.842 970.568 788.16 951.073 788.16H885.625V818.795C885.625 855 914.868 882.851 949.681 882.851ZM1655.68 579.284C1662.65 587.639 1672.39 591.816 1682.14 591.816C1690.5 591.816 1697.46 589.031 1704.42 583.461L1877.09 437.248C1885.45 430.285 1889.62 420.538 1889.62 410.79C1889.62 401.043 1885.45 391.295 1877.09 384.332L1704.42 236.727C1689.1 224.194 1668.22 225.586 1655.68 240.904C1643.15 256.222 1644.54 277.109 1659.86 289.642L1801.9 409.398L1659.86 529.153C1644.54 541.686 1643.15 563.966 1655.68 579.284ZM1308.95 583.461C1315.91 589.031 1322.87 591.816 1331.23 591.816C1340.98 591.816 1350.72 587.639 1357.69 579.284C1370.22 563.966 1368.83 543.078 1353.51 530.546L1212.87 410.79L1353.51 289.642C1368.83 277.109 1370.22 254.829 1357.69 240.904C1345.15 225.586 1322.87 224.194 1308.95 236.727L1136.28 382.94C1127.92 389.902 1123.74 399.65 1123.74 409.398C1123.74 419.145 1127.92 428.893 1136.28 435.855L1308.95 583.461ZM1420.35 625.237C1424.53 626.629 1428.7 628.022 1432.88 628.022C1446.81 628.022 1459.34 619.666 1464.91 605.741L1611.12 239.512C1618.09 221.409 1609.73 201.914 1591.63 194.951C1573.52 187.989 1554.03 196.344 1547.07 214.446L1400.85 580.676C1393.89 597.386 1402.25 618.274 1420.35 625.237Z" fill="#D80032"/>
<path d="M131.743 1451.13C114.083 1451.13 96.7765 1447.6 80.5293 1440.89C64.9886 1434.18 50.8606 1424.64 38.8519 1412.63C26.4899 1400.63 16.9535 1386.5 10.596 1370.6C3.53199 1354.36 0 1337.4 0 1319.39C0 1246.98 59.3374 1188 131.743 1188C152.229 1188 172.714 1192.94 190.727 1202.13C208.741 1210.96 224.988 1224.73 236.996 1240.98L242.648 1248.04L204.855 1275.95L199.557 1268.88C183.663 1247.34 158.939 1234.98 131.743 1234.98C85.1209 1234.98 46.9754 1272.77 46.9754 1319.39C46.9754 1366.37 85.1209 1404.51 131.743 1404.51C158.586 1404.51 183.31 1392.15 199.557 1370.6L204.855 1363.89L242.294 1391.44L236.643 1398.51C224.281 1415.11 208.741 1428.18 190.374 1437.36C172.361 1446.54 152.229 1451.13 131.743 1451.13ZM406.673 1450.78C334.267 1450.78 275.283 1392.15 275.283 1319.74C275.283 1246.98 334.267 1188 406.673 1188C479.432 1188 538.416 1246.98 538.416 1319.74C538.416 1392.15 479.432 1450.78 406.673 1450.78ZM406.673 1234.98C360.404 1234.98 322.612 1272.77 322.612 1319.74C322.612 1366.37 360.404 1404.16 406.673 1404.16C452.942 1404.16 490.734 1366.37 490.734 1319.74C490.734 1272.77 452.942 1234.98 406.673 1234.98V1234.98ZM792.154 1447.25H736.349L646.99 1324.33H626.857V1447.25H580.941V1195.77H671.007C687.961 1195.77 703.855 1202.48 716.217 1214.84C728.579 1227.21 735.289 1243.1 735.289 1260.05C735.289 1285.13 720.455 1307.73 698.557 1318.33L792.154 1447.25ZM626.857 1278.42H671.007C680.897 1278.42 689.374 1270.3 689.374 1260.05C689.374 1249.81 680.897 1241.69 671.007 1241.69H626.857V1278.42ZM918.034 1447.25H870.353V1322.92L779.581 1195.77H837.505L894.37 1275.24L951.235 1195.77H1008.81L918.034 1322.92V1447.25V1447.25ZM1344.98 1447.25H1289.18L1199.82 1324.33H1179.68V1447.25H1133.77V1195.77H1223.83C1240.79 1195.77 1256.68 1202.48 1269.04 1214.84C1281.41 1227.21 1288.12 1243.1 1288.12 1260.05C1288.12 1285.13 1273.28 1307.73 1251.38 1318.33L1344.98 1447.25ZM1179.68 1278.42H1223.83C1233.72 1278.42 1242.2 1270.3 1242.2 1260.05C1242.2 1249.81 1233.72 1241.69 1223.83 1241.69H1179.68V1278.42ZM1460.27 1450.78C1406.23 1450.78 1362.43 1406.98 1362.43 1352.94V1195.77H1409.4V1352.94C1409.4 1381.2 1432.36 1404.51 1460.27 1404.51C1488.52 1404.51 1511.13 1381.2 1511.13 1352.94V1195.77H1558.45V1352.94C1558.45 1379.08 1548.21 1403.8 1529.85 1422.17C1511.13 1440.54 1486.4 1450.78 1460.27 1450.78V1450.78ZM1827.03 1447.25H1781.46L1669.85 1282.3V1447.25H1622.52V1195.77H1668.44L1779.7 1360.36V1195.77H1827.03V1447.25V1447.25ZM2098.42 1447.25H2052.86L1941.25 1282.3V1447.25H1893.92V1195.77H1939.84L2051.1 1360.36V1195.77H2098.42V1447.25ZM2332.03 1447.25H2169.56V1195.77H2335.21V1241.69H2216.89V1278.77H2320.02V1325.75H2216.89V1400.63H2332.03V1447.25ZM2558.57 1447.25H2383.03V1195.77H2430.36V1400.98H2558.57V1447.25ZM2777.34 1447.25H2601.8V1195.77H2649.13V1400.98H2777.34V1447.25ZM2910.99 1449.37C2902.87 1449.37 2894.39 1448.31 2885.56 1446.54C2859.43 1441.24 2834 1428.53 2811.75 1409.1L2805.03 1403.1L2836.12 1367.78L2842.83 1373.78C2859.07 1387.91 2877.09 1397.45 2894.75 1400.98H2895.1C2900.4 1402.04 2905.7 1402.74 2910.99 1402.74C2919.82 1402.74 2927.95 1400.98 2934.66 1397.8C2943.14 1394.27 2953.03 1386.5 2953.03 1372.02C2953.03 1364.25 2949.14 1358.24 2941.02 1353.3C2931.13 1347.29 2917.71 1344.11 2908.17 1342.35C2903.93 1341.64 2867.9 1334.22 2851.3 1325.04C2840.35 1318.33 2831.88 1309.85 2825.87 1299.96C2819.87 1289.72 2817.04 1278.42 2817.04 1266.06C2817.04 1252.64 2821.28 1239.21 2829.41 1226.85C2837.18 1216.61 2847.77 1208.13 2860.49 1202.13C2873.2 1196.12 2887.33 1192.94 2902.52 1192.94C2908.52 1192.94 2914.88 1193.65 2921.24 1194.36C2944.55 1198.6 2967.51 1209.19 2987.64 1226.15L2994.35 1231.8L2964.33 1268.18L2957.62 1262.52C2934.66 1243.81 2914.88 1239.57 2902.16 1239.57C2894.04 1239.57 2886.62 1241.33 2880.27 1244.16C2870.38 1248.75 2864.02 1257.23 2864.02 1265.7C2864.02 1273.47 2866.84 1278.42 2873.56 1283.01C2880.27 1287.6 2890.51 1291.13 2906.76 1294.67C2908.88 1295.02 2911.7 1295.73 2914.53 1296.43C2929.36 1299.26 2949.14 1303.5 2962.91 1311.62C2974.92 1317.98 2984.11 1326.81 2990.46 1337.05C2996.82 1347.29 3000 1359.3 3000 1372.02C3000 1387.91 2995.76 1402.04 2987.29 1414.05C2979.87 1424.29 2968.92 1433.12 2954.44 1440.18C2942.08 1446.54 2928.3 1449.37 2910.99 1449.37V1449.37Z" fill="#D80032"/>
<path d="M1177.74 1711.52H1153.64L1118.37 1649.6L1083.1 1711.52H1058.99L1020 1572H1047.43L1075.26 1672.52L1106.41 1618.05H1130.52L1161.48 1672.52L1189.5 1572H1216.73L1177.74 1711.52ZM1341.01 1711.52H1250.87V1572H1342.77V1597.47H1277.13V1618.05H1334.34V1644.11H1277.13V1685.65H1341.01V1711.52ZM1442.16 1711.52H1381.02V1572H1432.75C1442.16 1572 1451.37 1575.92 1457.83 1582.58C1464.49 1589.05 1468.41 1598.26 1468.41 1607.66C1468.41 1613.35 1467.04 1618.64 1464.89 1623.34C1468.61 1625.49 1472.14 1628.04 1475.08 1631.18C1484.09 1639.99 1488.99 1651.75 1488.99 1664.29C1488.99 1676.83 1484.09 1688.59 1475.08 1697.6C1470.76 1701.92 1465.67 1705.44 1459.99 1707.79C1454.3 1710.34 1448.23 1711.52 1442.16 1711.52V1711.52ZM1407.08 1685.85H1441.96C1453.52 1685.46 1462.93 1675.85 1462.93 1664.29C1462.93 1652.93 1453.52 1643.33 1442.16 1643.13H1407.08V1685.85V1685.85ZM1407.08 1617.46H1432.55C1438.04 1617.46 1442.35 1612.95 1442.35 1607.66C1442.35 1602.37 1438.04 1598.06 1432.55 1597.67H1407.08V1617.46ZM1625.06 1711.52H1578.22V1572H1625.06C1664.44 1572 1696.58 1603.35 1696.58 1641.76C1696.58 1680.16 1664.44 1711.52 1625.06 1711.52V1711.52ZM1604.28 1685.85H1625.06C1650.14 1685.85 1670.52 1666.06 1670.52 1641.76C1670.52 1617.46 1650.14 1597.67 1625.06 1597.67H1604.28V1685.85V1685.85ZM1820.07 1711.52H1729.93V1572H1821.83V1597.47H1756.19V1618.05H1813.4V1644.11H1756.19V1685.65H1820.07V1711.52V1711.52ZM1926.31 1711.52H1902.6L1848.71 1572H1876.93L1914.36 1669.39L1951.98 1572H1980L1926.31 1711.52Z" fill="#D80032"/>
</svg>
